<mxfile host="65bd71144e" modified="2020-11-12T04:59:44.361Z" agent="5.0 (Windows NT 10.0; Win64; x64) AppleWebKit/537.36 (KHTML, like Gecko) Code/1.51.0 Chrome/83.0.4103.122 Electron/9.3.3 Safari/537.36" etag="BMb6pPAh21hNs4uPueKz" version="13.6.5" pages="5">
    <diagram id="tkFFh05xRgLOvUyrIKHx" name="ドメインモデル">
        <mxGraphModel dx="820" dy="575" grid="1" gridSize="10" guides="1" tooltips="1" connect="1" arrows="1" fold="1" page="1" pageScale="1" pageWidth="827" pageHeight="1169" math="0" shadow="0">
            <root>
                <mxCell id="nxpGQkWJrcfSHF4RF-Jc-0"/>
                <mxCell id="nxpGQkWJrcfSHF4RF-Jc-1" parent="nxpGQkWJrcfSHF4RF-Jc-0"/>
                <mxCell id="nxpGQkWJrcfSHF4RF-Jc-2" value="&lt;font style=&quot;font-size: 18px&quot;&gt;RoboDog&lt;/font&gt;" style="rounded=0;whiteSpace=wrap;html=1;" parent="nxpGQkWJrcfSHF4RF-Jc-1" vertex="1">
                    <mxGeometry x="90" y="150" width="360" height="70" as="geometry"/>
                </mxCell>
            </root>
        </mxGraphModel>
    </diagram>
    <diagram id="LhKQqbcJ0LBjxQpa3Uy2" name="ユースケース図">
        &#xa;
        <mxGraphModel dx="820" dy="575" grid="1" gridSize="10" guides="1" tooltips="1" connect="1" arrows="1" fold="1" page="1" pageScale="1" pageWidth="827" pageHeight="1169" math="0" shadow="0">
            &#xa;
            <root>
                &#xa;
                <mxCell id="0"/>
                &#xa;
                <mxCell id="1" parent="0"/>
                &#xa;
                <mxCell id="6" value="ユーザ" style="shape=umlActor;verticalLabelPosition=bottom;verticalAlign=top;html=1;outlineConnect=0;" parent="1" vertex="1">
                    &#xa;
                    <mxGeometry x="80" y="160" width="30" height="60" as="geometry"/>
                    &#xa;
                </mxCell>
                &#xa;
                <mxCell id="9" value="&lt;font style=&quot;font-size: 18px&quot;&gt;名前を変更する&lt;/font&gt;" style="ellipse;whiteSpace=wrap;html=1;" parent="1" vertex="1">
                    &#xa;
                    <mxGeometry x="240" y="80" width="250" height="80" as="geometry"/>
                    &#xa;
                </mxCell>
                &#xa;
                <mxCell id="10" value="&lt;font style=&quot;font-size: 18px&quot;&gt;時刻に応じた挨拶をする&lt;/font&gt;" style="ellipse;whiteSpace=wrap;html=1;" parent="1" vertex="1">
                    &#xa;
                    <mxGeometry x="234" y="200" width="366" height="80" as="geometry"/>
                    &#xa;
                </mxCell>
                &#xa;
                <mxCell id="13" value="&lt;font style=&quot;font-size: 18px&quot;&gt;2つの整数の足し算をする&lt;/font&gt;" style="ellipse;whiteSpace=wrap;html=1;" parent="1" vertex="1">
                    &#xa;
                    <mxGeometry x="240" y="330" width="360" height="80" as="geometry"/>
                    &#xa;
                </mxCell>
                &#xa;
                <mxCell id="14" value="" style="endArrow=none;html=1;" parent="1" edge="1">
                    &#xa;
                    <mxGeometry width="50" height="50" relative="1" as="geometry">
                        &#xa;
                        <mxPoint x="130" y="180" as="sourcePoint"/>
                        &#xa;
                        <mxPoint x="260" y="140" as="targetPoint"/>
                        &#xa;
                    </mxGeometry>
                    &#xa;
                </mxCell>
                &#xa;
                <mxCell id="15" value="" style="endArrow=none;html=1;" parent="1" edge="1">
                    &#xa;
                    <mxGeometry width="50" height="50" relative="1" as="geometry">
                        &#xa;
                        <mxPoint x="130" y="210" as="sourcePoint"/>
                        &#xa;
                        <mxPoint x="220" y="240" as="targetPoint"/>
                        &#xa;
                    </mxGeometry>
                    &#xa;
                </mxCell>
                &#xa;
                <mxCell id="16" value="" style="endArrow=none;html=1;" parent="1" edge="1">
                    &#xa;
                    <mxGeometry width="50" height="50" relative="1" as="geometry">
                        &#xa;
                        <mxPoint x="130" y="230" as="sourcePoint"/>
                        &#xa;
                        <mxPoint x="260" y="330" as="targetPoint"/>
                        &#xa;
                    </mxGeometry>
                    &#xa;
                </mxCell>
                &#xa;
            </root>
            &#xa;
        </mxGraphModel>
        &#xa;
    </diagram>
    <diagram id="leHfcivhyb52V9ilxUCZ" name="名前を変更する分析モデル">
        <mxGraphModel dx="820" dy="1744" grid="1" gridSize="10" guides="1" tooltips="1" connect="1" arrows="1" fold="1" page="1" pageScale="1" pageWidth="827" pageHeight="1169" math="0" shadow="0">
            <root>
                <mxCell id="xK2DXMfjPnLTOBb2WVJY-0"/>
                <mxCell id="xK2DXMfjPnLTOBb2WVJY-1" parent="xK2DXMfjPnLTOBb2WVJY-0"/>
                <mxCell id="xK2DXMfjPnLTOBb2WVJY-2" value="Actor" style="shape=umlActor;verticalLabelPosition=bottom;verticalAlign=top;html=1;outlineConnect=0;" parent="xK2DXMfjPnLTOBb2WVJY-1" vertex="1">
                    <mxGeometry x="50" y="-980" width="50" height="80" as="geometry"/>
                </mxCell>
                <mxCell id="xK2DXMfjPnLTOBb2WVJY-6" value="" style="ellipse;whiteSpace=wrap;html=1;aspect=fixed;" parent="xK2DXMfjPnLTOBb2WVJY-1" vertex="1">
                    <mxGeometry x="230" y="-1110" width="70" height="70" as="geometry"/>
                </mxCell>
                <mxCell id="xK2DXMfjPnLTOBb2WVJY-7" value="" style="endArrow=none;html=1;" parent="xK2DXMfjPnLTOBb2WVJY-1" edge="1">
                    <mxGeometry width="50" height="50" relative="1" as="geometry">
                        <mxPoint x="200" y="-1080" as="sourcePoint"/>
                        <mxPoint x="230" y="-1080" as="targetPoint"/>
                        <Array as="points"/>
                    </mxGeometry>
                </mxCell>
                <mxCell id="xK2DXMfjPnLTOBb2WVJY-8" value="" style="endArrow=none;html=1;" parent="xK2DXMfjPnLTOBb2WVJY-1" edge="1">
                    <mxGeometry width="50" height="50" relative="1" as="geometry">
                        <mxPoint x="200" y="-1055" as="sourcePoint"/>
                        <mxPoint x="200" y="-1110" as="targetPoint"/>
                    </mxGeometry>
                </mxCell>
                <mxCell id="jP59E5Vkrv_--OYEcTrB-5" value="" style="endArrow=classic;html=1;" parent="xK2DXMfjPnLTOBb2WVJY-1" edge="1">
                    <mxGeometry relative="1" as="geometry">
                        <mxPoint x="120" y="-970" as="sourcePoint"/>
                        <mxPoint x="190" y="-1080" as="targetPoint"/>
                    </mxGeometry>
                </mxCell>
                <mxCell id="jP59E5Vkrv_--OYEcTrB-6" value="&lt;font style=&quot;font-size: 14px&quot;&gt;名前の変更を&lt;br&gt;クリックする&lt;/font&gt;" style="edgeLabel;resizable=0;html=1;align=center;verticalAlign=middle;" parent="jP59E5Vkrv_--OYEcTrB-5" connectable="0" vertex="1">
                    <mxGeometry relative="1" as="geometry">
                        <mxPoint x="-24.9" as="offset"/>
                    </mxGeometry>
                </mxCell>
                <mxCell id="jP59E5Vkrv_--OYEcTrB-7" value="" style="ellipse;whiteSpace=wrap;html=1;aspect=fixed;" parent="xK2DXMfjPnLTOBb2WVJY-1" vertex="1">
                    <mxGeometry x="230" y="-910" width="70" height="70" as="geometry"/>
                </mxCell>
                <mxCell id="jP59E5Vkrv_--OYEcTrB-8" value="" style="endArrow=none;html=1;" parent="xK2DXMfjPnLTOBb2WVJY-1" edge="1">
                    <mxGeometry width="50" height="50" relative="1" as="geometry">
                        <mxPoint x="200" y="-880" as="sourcePoint"/>
                        <mxPoint x="230" y="-880" as="targetPoint"/>
                        <Array as="points"/>
                    </mxGeometry>
                </mxCell>
                <mxCell id="jP59E5Vkrv_--OYEcTrB-9" value="" style="endArrow=none;html=1;" parent="xK2DXMfjPnLTOBb2WVJY-1" edge="1">
                    <mxGeometry width="50" height="50" relative="1" as="geometry">
                        <mxPoint x="200" y="-855" as="sourcePoint"/>
                        <mxPoint x="200" y="-910" as="targetPoint"/>
                    </mxGeometry>
                </mxCell>
                <mxCell id="jP59E5Vkrv_--OYEcTrB-10" value="" style="endArrow=classic;html=1;" parent="xK2DXMfjPnLTOBb2WVJY-1" edge="1">
                    <mxGeometry relative="1" as="geometry">
                        <mxPoint x="120" y="-930" as="sourcePoint"/>
                        <mxPoint x="200" y="-880" as="targetPoint"/>
                    </mxGeometry>
                </mxCell>
                <mxCell id="jP59E5Vkrv_--OYEcTrB-11" value="&lt;span style=&quot;font-size: 14px&quot;&gt;新しい名前&lt;br&gt;を入力する&lt;br&gt;&lt;/span&gt;" style="edgeLabel;resizable=0;html=1;align=center;verticalAlign=middle;" parent="jP59E5Vkrv_--OYEcTrB-10" connectable="0" vertex="1">
                    <mxGeometry relative="1" as="geometry">
                        <mxPoint x="-24.9" y="4.84" as="offset"/>
                    </mxGeometry>
                </mxCell>
                <mxCell id="L8tmc_ibJz1NVLAluWjM-0" value="&lt;font style=&quot;font-size: 14px&quot;&gt;RoboDog&lt;/font&gt;&lt;br&gt;システムメニュー" style="text;html=1;strokeColor=none;fillColor=none;align=center;verticalAlign=middle;whiteSpace=wrap;rounded=0;" parent="xK2DXMfjPnLTOBb2WVJY-1" vertex="1">
                    <mxGeometry x="209.5" y="-1030" width="111" height="40" as="geometry"/>
                </mxCell>
                <mxCell id="L8tmc_ibJz1NVLAluWjM-1" value="&lt;span style=&quot;font-size: 14px&quot;&gt;名前の変更画面&lt;/span&gt;" style="text;html=1;strokeColor=none;fillColor=none;align=center;verticalAlign=middle;whiteSpace=wrap;rounded=0;" parent="xK2DXMfjPnLTOBb2WVJY-1" vertex="1">
                    <mxGeometry x="209.5" y="-830" width="111" height="40" as="geometry"/>
                </mxCell>
                <mxCell id="L8tmc_ibJz1NVLAluWjM-2" value="" style="ellipse;whiteSpace=wrap;html=1;aspect=fixed;" parent="xK2DXMfjPnLTOBb2WVJY-1" vertex="1">
                    <mxGeometry x="440" y="-1040" width="80" height="80" as="geometry"/>
                </mxCell>
                <mxCell id="L8tmc_ibJz1NVLAluWjM-3" value="" style="ellipse;whiteSpace=wrap;html=1;aspect=fixed;" parent="xK2DXMfjPnLTOBb2WVJY-1" vertex="1">
                    <mxGeometry x="440" y="-890" width="80" height="80" as="geometry"/>
                </mxCell>
                <mxCell id="L8tmc_ibJz1NVLAluWjM-4" value="" style="ellipse;whiteSpace=wrap;html=1;aspect=fixed;" parent="xK2DXMfjPnLTOBb2WVJY-1" vertex="1">
                    <mxGeometry x="350" y="-760" width="80" height="80" as="geometry"/>
                </mxCell>
                <mxCell id="L8tmc_ibJz1NVLAluWjM-5" value="" style="ellipse;whiteSpace=wrap;html=1;aspect=fixed;" parent="xK2DXMfjPnLTOBb2WVJY-1" vertex="1">
                    <mxGeometry x="680" y="-960" width="80" height="80" as="geometry"/>
                </mxCell>
                <mxCell id="L8tmc_ibJz1NVLAluWjM-7" value="" style="ellipse;whiteSpace=wrap;html=1;aspect=fixed;" parent="xK2DXMfjPnLTOBb2WVJY-1" vertex="1">
                    <mxGeometry x="230" y="-700" width="70" height="70" as="geometry"/>
                </mxCell>
                <mxCell id="L8tmc_ibJz1NVLAluWjM-8" value="" style="endArrow=none;html=1;" parent="xK2DXMfjPnLTOBb2WVJY-1" edge="1">
                    <mxGeometry width="50" height="50" relative="1" as="geometry">
                        <mxPoint x="200" y="-670" as="sourcePoint"/>
                        <mxPoint x="230" y="-670" as="targetPoint"/>
                        <Array as="points"/>
                    </mxGeometry>
                </mxCell>
                <mxCell id="L8tmc_ibJz1NVLAluWjM-9" value="" style="endArrow=none;html=1;" parent="xK2DXMfjPnLTOBb2WVJY-1" edge="1">
                    <mxGeometry width="50" height="50" relative="1" as="geometry">
                        <mxPoint x="200" y="-645" as="sourcePoint"/>
                        <mxPoint x="200" y="-700" as="targetPoint"/>
                    </mxGeometry>
                </mxCell>
                <mxCell id="L8tmc_ibJz1NVLAluWjM-10" value="&lt;span style=&quot;font-size: 14px&quot;&gt;名前の変更結果表示画面&lt;/span&gt;" style="text;html=1;strokeColor=none;fillColor=none;align=center;verticalAlign=middle;whiteSpace=wrap;rounded=0;" parent="xK2DXMfjPnLTOBb2WVJY-1" vertex="1">
                    <mxGeometry x="179.5" y="-624" width="170.5" height="40" as="geometry"/>
                </mxCell>
                <mxCell id="L8tmc_ibJz1NVLAluWjM-11" value="" style="endArrow=classic;html=1;" parent="xK2DXMfjPnLTOBb2WVJY-1" edge="1">
                    <mxGeometry width="50" height="50" relative="1" as="geometry">
                        <mxPoint x="310" y="-1050" as="sourcePoint"/>
                        <mxPoint x="430" y="-1020" as="targetPoint"/>
                    </mxGeometry>
                </mxCell>
                <mxCell id="L8tmc_ibJz1NVLAluWjM-13" value="" style="endArrow=classic;startArrow=classic;html=1;" parent="xK2DXMfjPnLTOBb2WVJY-1" edge="1">
                    <mxGeometry width="50" height="50" relative="1" as="geometry">
                        <mxPoint x="530" y="-1000" as="sourcePoint"/>
                        <mxPoint x="680" y="-960" as="targetPoint"/>
                    </mxGeometry>
                </mxCell>
                <mxCell id="L8tmc_ibJz1NVLAluWjM-14" value="" style="endArrow=classic;html=1;" parent="xK2DXMfjPnLTOBb2WVJY-1" edge="1">
                    <mxGeometry width="50" height="50" relative="1" as="geometry">
                        <mxPoint x="440" y="-790" as="sourcePoint"/>
                        <mxPoint x="420" y="-770" as="targetPoint"/>
                        <Array as="points">
                            <mxPoint x="460" y="-810"/>
                        </Array>
                    </mxGeometry>
                </mxCell>
                <mxCell id="L8tmc_ibJz1NVLAluWjM-15" value="" style="endArrow=classic;html=1;" parent="xK2DXMfjPnLTOBb2WVJY-1" edge="1">
                    <mxGeometry width="50" height="50" relative="1" as="geometry">
                        <mxPoint x="340" y="-695" as="sourcePoint"/>
                        <mxPoint x="310" y="-680" as="targetPoint"/>
                    </mxGeometry>
                </mxCell>
                <mxCell id="L8tmc_ibJz1NVLAluWjM-16" value="&lt;span style=&quot;font-size: 14px&quot;&gt;結果の表示&lt;br&gt;&lt;/span&gt;" style="text;html=1;strokeColor=none;fillColor=none;align=center;verticalAlign=middle;whiteSpace=wrap;rounded=0;" parent="xK2DXMfjPnLTOBb2WVJY-1" vertex="1">
                    <mxGeometry x="334.5" y="-670" width="111" height="40" as="geometry"/>
                </mxCell>
                <mxCell id="L8tmc_ibJz1NVLAluWjM-17" value="&lt;span style=&quot;font-size: 14px&quot;&gt;名前の変更&lt;/span&gt;" style="text;html=1;strokeColor=none;fillColor=none;align=center;verticalAlign=middle;whiteSpace=wrap;rounded=0;" parent="xK2DXMfjPnLTOBb2WVJY-1" vertex="1">
                    <mxGeometry x="445.5" y="-810" width="111" height="40" as="geometry"/>
                </mxCell>
                <mxCell id="L8tmc_ibJz1NVLAluWjM-18" value="&lt;span style=&quot;font-size: 14px&quot;&gt;名前の変更画面表示&lt;/span&gt;" style="text;html=1;strokeColor=none;fillColor=none;align=center;verticalAlign=middle;whiteSpace=wrap;rounded=0;" parent="xK2DXMfjPnLTOBb2WVJY-1" vertex="1">
                    <mxGeometry x="421" y="-960" width="135.5" height="40" as="geometry"/>
                </mxCell>
                <mxCell id="L8tmc_ibJz1NVLAluWjM-19" value="&lt;span style=&quot;font-size: 14px&quot;&gt;RoboDog&lt;/span&gt;" style="text;html=1;strokeColor=none;fillColor=none;align=center;verticalAlign=middle;whiteSpace=wrap;rounded=0;" parent="xK2DXMfjPnLTOBb2WVJY-1" vertex="1">
                    <mxGeometry x="664.5" y="-880" width="111" height="40" as="geometry"/>
                </mxCell>
                <mxCell id="L8tmc_ibJz1NVLAluWjM-20" value="" style="line;strokeWidth=2;html=1;" parent="xK2DXMfjPnLTOBb2WVJY-1" vertex="1">
                    <mxGeometry x="685" y="-880" width="70" height="10" as="geometry"/>
                </mxCell>
                <mxCell id="L8tmc_ibJz1NVLAluWjM-21" value="&lt;span style=&quot;font-size: 14px&quot;&gt;&amp;lt;&lt;br&gt;&lt;/span&gt;" style="text;html=1;strokeColor=none;fillColor=none;align=center;verticalAlign=middle;whiteSpace=wrap;rounded=0;" parent="xK2DXMfjPnLTOBb2WVJY-1" vertex="1">
                    <mxGeometry x="424.5" y="-1060" width="111" height="40" as="geometry"/>
                </mxCell>
                <mxCell id="L8tmc_ibJz1NVLAluWjM-22" value="&lt;span style=&quot;font-size: 14px&quot;&gt;&amp;lt;&lt;/span&gt;" style="text;html=1;strokeColor=none;fillColor=none;align=center;verticalAlign=middle;whiteSpace=wrap;rounded=0;" parent="xK2DXMfjPnLTOBb2WVJY-1" vertex="1">
                    <mxGeometry x="424.5" y="-910" width="111" height="40" as="geometry"/>
                </mxCell>
                <mxCell id="L8tmc_ibJz1NVLAluWjM-23" value="" style="endArrow=classic;startArrow=classic;html=1;" parent="xK2DXMfjPnLTOBb2WVJY-1" edge="1">
                    <mxGeometry width="50" height="50" relative="1" as="geometry">
                        <mxPoint x="530" y="-860" as="sourcePoint"/>
                        <mxPoint x="680" y="-910" as="targetPoint"/>
                    </mxGeometry>
                </mxCell>
                <mxCell id="L8tmc_ibJz1NVLAluWjM-24" value="" style="endArrow=classic;html=1;" parent="xK2DXMfjPnLTOBb2WVJY-1" edge="1">
                    <mxGeometry width="50" height="50" relative="1" as="geometry">
                        <mxPoint x="310" y="-860" as="sourcePoint"/>
                        <mxPoint x="430" y="-850" as="targetPoint"/>
                    </mxGeometry>
                </mxCell>
                <mxCell id="L8tmc_ibJz1NVLAluWjM-25" value="" style="endArrow=classic;html=1;" parent="xK2DXMfjPnLTOBb2WVJY-1" edge="1">
                    <mxGeometry width="50" height="50" relative="1" as="geometry">
                        <mxPoint x="430" y="-980" as="sourcePoint"/>
                        <mxPoint x="310" y="-900" as="targetPoint"/>
                    </mxGeometry>
                </mxCell>
            </root>
        </mxGraphModel>
    </diagram>
    <diagram id="v_VKHdhqtzQyPYXervkS" name="時刻に応じた挨拶をする分析モデル">
        <mxGraphModel dx="820" dy="1744" grid="1" gridSize="10" guides="1" tooltips="1" connect="1" arrows="1" fold="1" page="1" pageScale="1" pageWidth="827" pageHeight="1169" math="0" shadow="0">
            <root>
                <mxCell id="adgyNSO41N8wVR6gLIsb-0"/>
                <mxCell id="adgyNSO41N8wVR6gLIsb-1" parent="adgyNSO41N8wVR6gLIsb-0"/>
                <mxCell id="adgyNSO41N8wVR6gLIsb-2" value="Actor" style="shape=umlActor;verticalLabelPosition=bottom;verticalAlign=top;html=1;outlineConnect=0;" parent="adgyNSO41N8wVR6gLIsb-1" vertex="1">
                    <mxGeometry x="50" y="-980" width="50" height="80" as="geometry"/>
                </mxCell>
                <mxCell id="adgyNSO41N8wVR6gLIsb-3" value="" style="ellipse;whiteSpace=wrap;html=1;aspect=fixed;" parent="adgyNSO41N8wVR6gLIsb-1" vertex="1">
                    <mxGeometry x="230" y="-1110" width="70" height="70" as="geometry"/>
                </mxCell>
                <mxCell id="adgyNSO41N8wVR6gLIsb-4" value="" style="endArrow=none;html=1;" parent="adgyNSO41N8wVR6gLIsb-1" edge="1">
                    <mxGeometry width="50" height="50" relative="1" as="geometry">
                        <mxPoint x="200" y="-1080" as="sourcePoint"/>
                        <mxPoint x="230" y="-1080" as="targetPoint"/>
                        <Array as="points"/>
                    </mxGeometry>
                </mxCell>
                <mxCell id="adgyNSO41N8wVR6gLIsb-5" value="" style="endArrow=none;html=1;" parent="adgyNSO41N8wVR6gLIsb-1" edge="1">
                    <mxGeometry width="50" height="50" relative="1" as="geometry">
                        <mxPoint x="200" y="-1055" as="sourcePoint"/>
                        <mxPoint x="200" y="-1110" as="targetPoint"/>
                    </mxGeometry>
                </mxCell>
                <mxCell id="adgyNSO41N8wVR6gLIsb-6" value="" style="endArrow=classic;html=1;" parent="adgyNSO41N8wVR6gLIsb-1" edge="1">
                    <mxGeometry relative="1" as="geometry">
                        <mxPoint x="120" y="-970" as="sourcePoint"/>
                        <mxPoint x="190" y="-1080" as="targetPoint"/>
                    </mxGeometry>
                </mxCell>
                <mxCell id="adgyNSO41N8wVR6gLIsb-7" value="&lt;span style=&quot;font-size: 14px&quot;&gt;時刻に応じた挨&lt;br&gt;拶をクリック&lt;/span&gt;" style="edgeLabel;resizable=0;html=1;align=center;verticalAlign=middle;" parent="adgyNSO41N8wVR6gLIsb-6" connectable="0" vertex="1">
                    <mxGeometry relative="1" as="geometry">
                        <mxPoint x="-24.9" as="offset"/>
                    </mxGeometry>
                </mxCell>
                <mxCell id="adgyNSO41N8wVR6gLIsb-8" value="" style="ellipse;whiteSpace=wrap;html=1;aspect=fixed;" parent="adgyNSO41N8wVR6gLIsb-1" vertex="1">
                    <mxGeometry x="230" y="-910" width="70" height="70" as="geometry"/>
                </mxCell>
                <mxCell id="adgyNSO41N8wVR6gLIsb-9" value="" style="endArrow=none;html=1;" parent="adgyNSO41N8wVR6gLIsb-1" edge="1">
                    <mxGeometry width="50" height="50" relative="1" as="geometry">
                        <mxPoint x="200" y="-880" as="sourcePoint"/>
                        <mxPoint x="230" y="-880" as="targetPoint"/>
                        <Array as="points"/>
                    </mxGeometry>
                </mxCell>
                <mxCell id="adgyNSO41N8wVR6gLIsb-10" value="" style="endArrow=none;html=1;" parent="adgyNSO41N8wVR6gLIsb-1" edge="1">
                    <mxGeometry width="50" height="50" relative="1" as="geometry">
                        <mxPoint x="200" y="-855" as="sourcePoint"/>
                        <mxPoint x="200" y="-910" as="targetPoint"/>
                    </mxGeometry>
                </mxCell>
                <mxCell id="adgyNSO41N8wVR6gLIsb-11" value="" style="endArrow=classic;html=1;" parent="adgyNSO41N8wVR6gLIsb-1" edge="1">
                    <mxGeometry relative="1" as="geometry">
                        <mxPoint x="120" y="-930" as="sourcePoint"/>
                        <mxPoint x="200" y="-880" as="targetPoint"/>
                    </mxGeometry>
                </mxCell>
                <mxCell id="adgyNSO41N8wVR6gLIsb-12" value="&lt;span style=&quot;font-size: 14px&quot;&gt;時刻を入力&lt;br&gt;する&lt;br&gt;&lt;/span&gt;" style="edgeLabel;resizable=0;html=1;align=center;verticalAlign=middle;" parent="adgyNSO41N8wVR6gLIsb-11" connectable="0" vertex="1">
                    <mxGeometry relative="1" as="geometry">
                        <mxPoint x="-24.9" y="4.84" as="offset"/>
                    </mxGeometry>
                </mxCell>
                <mxCell id="adgyNSO41N8wVR6gLIsb-13" value="&lt;font style=&quot;font-size: 14px&quot;&gt;RoboDog&lt;/font&gt;&lt;br&gt;システムメニュー" style="text;html=1;strokeColor=none;fillColor=none;align=center;verticalAlign=middle;whiteSpace=wrap;rounded=0;" parent="adgyNSO41N8wVR6gLIsb-1" vertex="1">
                    <mxGeometry x="209.5" y="-1030" width="111" height="40" as="geometry"/>
                </mxCell>
                <mxCell id="adgyNSO41N8wVR6gLIsb-14" value="&lt;span style=&quot;font-size: 14px&quot;&gt;名前の変更画面&lt;/span&gt;" style="text;html=1;strokeColor=none;fillColor=none;align=center;verticalAlign=middle;whiteSpace=wrap;rounded=0;" parent="adgyNSO41N8wVR6gLIsb-1" vertex="1">
                    <mxGeometry x="209.5" y="-830" width="111" height="40" as="geometry"/>
                </mxCell>
                <mxCell id="adgyNSO41N8wVR6gLIsb-15" value="" style="ellipse;whiteSpace=wrap;html=1;aspect=fixed;" parent="adgyNSO41N8wVR6gLIsb-1" vertex="1">
                    <mxGeometry x="440" y="-1040" width="80" height="80" as="geometry"/>
                </mxCell>
                <mxCell id="adgyNSO41N8wVR6gLIsb-16" value="" style="ellipse;whiteSpace=wrap;html=1;aspect=fixed;" parent="adgyNSO41N8wVR6gLIsb-1" vertex="1">
                    <mxGeometry x="440" y="-890" width="80" height="80" as="geometry"/>
                </mxCell>
                <mxCell id="adgyNSO41N8wVR6gLIsb-17" value="" style="ellipse;whiteSpace=wrap;html=1;aspect=fixed;" parent="adgyNSO41N8wVR6gLIsb-1" vertex="1">
                    <mxGeometry x="350" y="-760" width="80" height="80" as="geometry"/>
                </mxCell>
                <mxCell id="adgyNSO41N8wVR6gLIsb-19" value="" style="ellipse;whiteSpace=wrap;html=1;aspect=fixed;" parent="adgyNSO41N8wVR6gLIsb-1" vertex="1">
                    <mxGeometry x="230" y="-700" width="70" height="70" as="geometry"/>
                </mxCell>
                <mxCell id="adgyNSO41N8wVR6gLIsb-20" value="" style="endArrow=none;html=1;" parent="adgyNSO41N8wVR6gLIsb-1" edge="1">
                    <mxGeometry width="50" height="50" relative="1" as="geometry">
                        <mxPoint x="200" y="-670" as="sourcePoint"/>
                        <mxPoint x="230" y="-670" as="targetPoint"/>
                        <Array as="points"/>
                    </mxGeometry>
                </mxCell>
                <mxCell id="adgyNSO41N8wVR6gLIsb-21" value="" style="endArrow=none;html=1;" parent="adgyNSO41N8wVR6gLIsb-1" edge="1">
                    <mxGeometry width="50" height="50" relative="1" as="geometry">
                        <mxPoint x="200" y="-645" as="sourcePoint"/>
                        <mxPoint x="200" y="-700" as="targetPoint"/>
                    </mxGeometry>
                </mxCell>
                <mxCell id="adgyNSO41N8wVR6gLIsb-22" value="" style="endArrow=classic;html=1;" parent="adgyNSO41N8wVR6gLIsb-1" edge="1">
                    <mxGeometry width="50" height="50" relative="1" as="geometry">
                        <mxPoint x="310" y="-1050" as="sourcePoint"/>
                        <mxPoint x="430" y="-1020" as="targetPoint"/>
                    </mxGeometry>
                </mxCell>
                <mxCell id="adgyNSO41N8wVR6gLIsb-24" value="" style="endArrow=classic;html=1;" parent="adgyNSO41N8wVR6gLIsb-1" edge="1">
                    <mxGeometry width="50" height="50" relative="1" as="geometry">
                        <mxPoint x="440" y="-790" as="sourcePoint"/>
                        <mxPoint x="420" y="-770" as="targetPoint"/>
                        <Array as="points">
                            <mxPoint x="460" y="-810"/>
                        </Array>
                    </mxGeometry>
                </mxCell>
                <mxCell id="adgyNSO41N8wVR6gLIsb-25" value="" style="endArrow=classic;html=1;" parent="adgyNSO41N8wVR6gLIsb-1" edge="1">
                    <mxGeometry width="50" height="50" relative="1" as="geometry">
                        <mxPoint x="340" y="-695" as="sourcePoint"/>
                        <mxPoint x="310" y="-680" as="targetPoint"/>
                    </mxGeometry>
                </mxCell>
                <mxCell id="adgyNSO41N8wVR6gLIsb-26" value="&lt;span style=&quot;font-size: 14px&quot;&gt;結果の表示&lt;br&gt;&lt;/span&gt;" style="text;html=1;strokeColor=none;fillColor=none;align=center;verticalAlign=middle;whiteSpace=wrap;rounded=0;" parent="adgyNSO41N8wVR6gLIsb-1" vertex="1">
                    <mxGeometry x="334.5" y="-670" width="111" height="40" as="geometry"/>
                </mxCell>
                <mxCell id="adgyNSO41N8wVR6gLIsb-27" value="&lt;span style=&quot;font-size: 14px&quot;&gt;時刻設定&lt;/span&gt;" style="text;html=1;strokeColor=none;fillColor=none;align=center;verticalAlign=middle;whiteSpace=wrap;rounded=0;" parent="adgyNSO41N8wVR6gLIsb-1" vertex="1">
                    <mxGeometry x="445.5" y="-810" width="111" height="40" as="geometry"/>
                </mxCell>
                <mxCell id="adgyNSO41N8wVR6gLIsb-28" value="&lt;span style=&quot;font-size: 14px&quot;&gt;表示２１&lt;/span&gt;" style="text;html=1;strokeColor=none;fillColor=none;align=center;verticalAlign=middle;whiteSpace=wrap;rounded=0;" parent="adgyNSO41N8wVR6gLIsb-1" vertex="1">
                    <mxGeometry x="421" y="-960" width="135.5" height="40" as="geometry"/>
                </mxCell>
                <mxCell id="adgyNSO41N8wVR6gLIsb-31" value="&lt;span style=&quot;font-size: 14px&quot;&gt;&amp;lt;&lt;br&gt;&lt;/span&gt;" style="text;html=1;strokeColor=none;fillColor=none;align=center;verticalAlign=middle;whiteSpace=wrap;rounded=0;" parent="adgyNSO41N8wVR6gLIsb-1" vertex="1">
                    <mxGeometry x="424.5" y="-1060" width="111" height="40" as="geometry"/>
                </mxCell>
                <mxCell id="adgyNSO41N8wVR6gLIsb-32" value="&lt;span style=&quot;font-size: 14px&quot;&gt;&amp;lt;&lt;/span&gt;" style="text;html=1;strokeColor=none;fillColor=none;align=center;verticalAlign=middle;whiteSpace=wrap;rounded=0;" parent="adgyNSO41N8wVR6gLIsb-1" vertex="1">
                    <mxGeometry x="424.5" y="-910" width="111" height="40" as="geometry"/>
                </mxCell>
                <mxCell id="adgyNSO41N8wVR6gLIsb-33" value="" style="endArrow=classic;startArrow=classic;html=1;" parent="adgyNSO41N8wVR6gLIsb-1" edge="1">
                    <mxGeometry width="50" height="50" relative="1" as="geometry">
                        <mxPoint x="530" y="-860" as="sourcePoint"/>
                        <mxPoint x="680" y="-860" as="targetPoint"/>
                    </mxGeometry>
                </mxCell>
                <mxCell id="adgyNSO41N8wVR6gLIsb-34" value="" style="endArrow=classic;html=1;" parent="adgyNSO41N8wVR6gLIsb-1" edge="1">
                    <mxGeometry width="50" height="50" relative="1" as="geometry">
                        <mxPoint x="310" y="-860" as="sourcePoint"/>
                        <mxPoint x="430" y="-850" as="targetPoint"/>
                    </mxGeometry>
                </mxCell>
                <mxCell id="adgyNSO41N8wVR6gLIsb-35" value="" style="endArrow=classic;html=1;" parent="adgyNSO41N8wVR6gLIsb-1" edge="1">
                    <mxGeometry width="50" height="50" relative="1" as="geometry">
                        <mxPoint x="430" y="-980" as="sourcePoint"/>
                        <mxPoint x="310" y="-900" as="targetPoint"/>
                    </mxGeometry>
                </mxCell>
                <mxCell id="adgyNSO41N8wVR6gLIsb-37" value="" style="ellipse;whiteSpace=wrap;html=1;aspect=fixed;" parent="adgyNSO41N8wVR6gLIsb-1" vertex="1">
                    <mxGeometry x="700" y="-890" width="80" height="80" as="geometry"/>
                </mxCell>
                <mxCell id="adgyNSO41N8wVR6gLIsb-38" value="" style="line;strokeWidth=2;html=1;" parent="adgyNSO41N8wVR6gLIsb-1" vertex="1">
                    <mxGeometry x="710" y="-810" width="60" height="10" as="geometry"/>
                </mxCell>
                <mxCell id="adgyNSO41N8wVR6gLIsb-39" value="&lt;font style=&quot;font-size: 14px&quot;&gt;RoboDog&lt;/font&gt;" style="text;html=1;strokeColor=none;fillColor=none;align=center;verticalAlign=middle;whiteSpace=wrap;rounded=0;" parent="adgyNSO41N8wVR6gLIsb-1" vertex="1">
                    <mxGeometry x="684.5" y="-800" width="111" height="40" as="geometry"/>
                </mxCell>
                <mxCell id="kNi465lHEWfnAKWFc7tb-0" value="&lt;span style=&quot;font-size: 14px&quot;&gt;時刻に応じた挨拶表示画面&lt;/span&gt;" style="text;html=1;strokeColor=none;fillColor=none;align=center;verticalAlign=middle;whiteSpace=wrap;rounded=0;" parent="adgyNSO41N8wVR6gLIsb-1" vertex="1">
                    <mxGeometry x="170" y="-630" width="180" height="40" as="geometry"/>
                </mxCell>
                <mxCell id="kNi465lHEWfnAKWFc7tb-1" value="&lt;span style=&quot;font-size: 14px&quot;&gt;時刻を設定する▶&lt;/span&gt;" style="text;html=1;strokeColor=none;fillColor=none;align=center;verticalAlign=middle;whiteSpace=wrap;rounded=0;" parent="adgyNSO41N8wVR6gLIsb-1" vertex="1">
                    <mxGeometry x="550" y="-910" width="130" height="40" as="geometry"/>
                </mxCell>
                <mxCell id="kNi465lHEWfnAKWFc7tb-2" value="&lt;span style=&quot;font-size: 14px&quot;&gt;◀挨拶を受け取る&lt;/span&gt;" style="text;html=1;strokeColor=none;fillColor=none;align=center;verticalAlign=middle;whiteSpace=wrap;rounded=0;" parent="adgyNSO41N8wVR6gLIsb-1" vertex="1">
                    <mxGeometry x="550" y="-840" width="120" height="40" as="geometry"/>
                </mxCell>
                <mxCell id="kNi465lHEWfnAKWFc7tb-3" value="00;00～11;59 おはよう&lt;br&gt;　12;00～17;59 こんにちは&lt;br&gt;　18;00～23;59 こんばんは&lt;br&gt;と時刻に応じた挨拶を返す" style="rounded=0;whiteSpace=wrap;html=1;align=center;" parent="adgyNSO41N8wVR6gLIsb-1" vertex="1">
                    <mxGeometry x="502.5" y="-760" width="257.5" height="110" as="geometry"/>
                </mxCell>
            </root>
        </mxGraphModel>
    </diagram>
    <diagram id="S90ieCabRnqMaH33XSyu" name="２つの整数の足し算をする分析モデル">
        <mxGraphModel dx="820" dy="1744" grid="1" gridSize="10" guides="1" tooltips="1" connect="1" arrows="1" fold="1" page="1" pageScale="1" pageWidth="827" pageHeight="1169" math="0" shadow="0">
            <root>
                <mxCell id="HYxAXSwcPygyeKNEVqgU-0"/>
                <mxCell id="HYxAXSwcPygyeKNEVqgU-1" parent="HYxAXSwcPygyeKNEVqgU-0"/>
                <mxCell id="6G0fP7aGu8YC6I9vEUQP-0" value="Actor" style="shape=umlActor;verticalLabelPosition=bottom;verticalAlign=top;html=1;outlineConnect=0;" parent="HYxAXSwcPygyeKNEVqgU-1" vertex="1">
                    <mxGeometry x="50" y="-980" width="50" height="80" as="geometry"/>
                </mxCell>
                <mxCell id="6G0fP7aGu8YC6I9vEUQP-1" value="" style="ellipse;whiteSpace=wrap;html=1;aspect=fixed;" parent="HYxAXSwcPygyeKNEVqgU-1" vertex="1">
                    <mxGeometry x="230" y="-1110" width="70" height="70" as="geometry"/>
                </mxCell>
                <mxCell id="6G0fP7aGu8YC6I9vEUQP-2" value="" style="endArrow=none;html=1;" parent="HYxAXSwcPygyeKNEVqgU-1" edge="1">
                    <mxGeometry width="50" height="50" relative="1" as="geometry">
                        <mxPoint x="200" y="-1080" as="sourcePoint"/>
                        <mxPoint x="230" y="-1080" as="targetPoint"/>
                        <Array as="points"/>
                    </mxGeometry>
                </mxCell>
                <mxCell id="6G0fP7aGu8YC6I9vEUQP-3" value="" style="endArrow=none;html=1;" parent="HYxAXSwcPygyeKNEVqgU-1" edge="1">
                    <mxGeometry width="50" height="50" relative="1" as="geometry">
                        <mxPoint x="200" y="-1055" as="sourcePoint"/>
                        <mxPoint x="200" y="-1110" as="targetPoint"/>
                    </mxGeometry>
                </mxCell>
                <mxCell id="6G0fP7aGu8YC6I9vEUQP-4" value="" style="endArrow=classic;html=1;" parent="HYxAXSwcPygyeKNEVqgU-1" edge="1">
                    <mxGeometry relative="1" as="geometry">
                        <mxPoint x="120" y="-970" as="sourcePoint"/>
                        <mxPoint x="190" y="-1080" as="targetPoint"/>
                    </mxGeometry>
                </mxCell>
                <mxCell id="6G0fP7aGu8YC6I9vEUQP-5" value="&lt;span style=&quot;font-size: 14px&quot;&gt;二つの整数の&lt;br&gt;足し算をクリック&lt;br&gt;&lt;/span&gt;" style="edgeLabel;resizable=0;html=1;align=center;verticalAlign=middle;" parent="6G0fP7aGu8YC6I9vEUQP-4" connectable="0" vertex="1">
                    <mxGeometry relative="1" as="geometry">
                        <mxPoint x="-24.9" as="offset"/>
                    </mxGeometry>
                </mxCell>
                <mxCell id="6G0fP7aGu8YC6I9vEUQP-6" value="" style="ellipse;whiteSpace=wrap;html=1;aspect=fixed;" parent="HYxAXSwcPygyeKNEVqgU-1" vertex="1">
                    <mxGeometry x="230" y="-910" width="70" height="70" as="geometry"/>
                </mxCell>
                <mxCell id="6G0fP7aGu8YC6I9vEUQP-7" value="" style="endArrow=none;html=1;" parent="HYxAXSwcPygyeKNEVqgU-1" edge="1">
                    <mxGeometry width="50" height="50" relative="1" as="geometry">
                        <mxPoint x="200" y="-880" as="sourcePoint"/>
                        <mxPoint x="230" y="-880" as="targetPoint"/>
                        <Array as="points"/>
                    </mxGeometry>
                </mxCell>
                <mxCell id="6G0fP7aGu8YC6I9vEUQP-8" value="" style="endArrow=none;html=1;" parent="HYxAXSwcPygyeKNEVqgU-1" edge="1">
                    <mxGeometry width="50" height="50" relative="1" as="geometry">
                        <mxPoint x="200" y="-855" as="sourcePoint"/>
                        <mxPoint x="200" y="-910" as="targetPoint"/>
                    </mxGeometry>
                </mxCell>
                <mxCell id="6G0fP7aGu8YC6I9vEUQP-9" value="" style="endArrow=classic;html=1;" parent="HYxAXSwcPygyeKNEVqgU-1" edge="1">
                    <mxGeometry relative="1" as="geometry">
                        <mxPoint x="120" y="-930" as="sourcePoint"/>
                        <mxPoint x="200" y="-880" as="targetPoint"/>
                    </mxGeometry>
                </mxCell>
                <mxCell id="6G0fP7aGu8YC6I9vEUQP-10" value="&lt;span style=&quot;font-size: 14px&quot;&gt;二つの整数&lt;br&gt;を入力する&lt;br&gt;&lt;/span&gt;" style="edgeLabel;resizable=0;html=1;align=center;verticalAlign=middle;" parent="6G0fP7aGu8YC6I9vEUQP-9" connectable="0" vertex="1">
                    <mxGeometry relative="1" as="geometry">
                        <mxPoint x="-24.9" y="4.84" as="offset"/>
                    </mxGeometry>
                </mxCell>
                <mxCell id="6G0fP7aGu8YC6I9vEUQP-11" value="&lt;font style=&quot;font-size: 14px&quot;&gt;RoboDog&lt;/font&gt;&lt;br&gt;システムメニュー" style="text;html=1;strokeColor=none;fillColor=none;align=center;verticalAlign=middle;whiteSpace=wrap;rounded=0;" parent="HYxAXSwcPygyeKNEVqgU-1" vertex="1">
                    <mxGeometry x="209.5" y="-1030" width="111" height="40" as="geometry"/>
                </mxCell>
                <mxCell id="6G0fP7aGu8YC6I9vEUQP-12" value="&lt;span style=&quot;font-size: 14px&quot;&gt;足し算入力画面&lt;/span&gt;" style="text;html=1;strokeColor=none;fillColor=none;align=center;verticalAlign=middle;whiteSpace=wrap;rounded=0;" parent="HYxAXSwcPygyeKNEVqgU-1" vertex="1">
                    <mxGeometry x="209.5" y="-830" width="111" height="40" as="geometry"/>
                </mxCell>
                <mxCell id="6G0fP7aGu8YC6I9vEUQP-13" value="" style="ellipse;whiteSpace=wrap;html=1;aspect=fixed;" parent="HYxAXSwcPygyeKNEVqgU-1" vertex="1">
                    <mxGeometry x="440" y="-1040" width="80" height="80" as="geometry"/>
                </mxCell>
                <mxCell id="6G0fP7aGu8YC6I9vEUQP-14" value="" style="ellipse;whiteSpace=wrap;html=1;aspect=fixed;" parent="HYxAXSwcPygyeKNEVqgU-1" vertex="1">
                    <mxGeometry x="440" y="-890" width="80" height="80" as="geometry"/>
                </mxCell>
                <mxCell id="6G0fP7aGu8YC6I9vEUQP-15" value="" style="ellipse;whiteSpace=wrap;html=1;aspect=fixed;" parent="HYxAXSwcPygyeKNEVqgU-1" vertex="1">
                    <mxGeometry x="350" y="-760" width="80" height="80" as="geometry"/>
                </mxCell>
                <mxCell id="6G0fP7aGu8YC6I9vEUQP-16" value="" style="ellipse;whiteSpace=wrap;html=1;aspect=fixed;" parent="HYxAXSwcPygyeKNEVqgU-1" vertex="1">
                    <mxGeometry x="680" y="-960" width="80" height="80" as="geometry"/>
                </mxCell>
                <mxCell id="6G0fP7aGu8YC6I9vEUQP-17" value="" style="ellipse;whiteSpace=wrap;html=1;aspect=fixed;" parent="HYxAXSwcPygyeKNEVqgU-1" vertex="1">
                    <mxGeometry x="230" y="-700" width="70" height="70" as="geometry"/>
                </mxCell>
                <mxCell id="6G0fP7aGu8YC6I9vEUQP-18" value="" style="endArrow=none;html=1;" parent="HYxAXSwcPygyeKNEVqgU-1" edge="1">
                    <mxGeometry width="50" height="50" relative="1" as="geometry">
                        <mxPoint x="200" y="-670" as="sourcePoint"/>
                        <mxPoint x="230" y="-670" as="targetPoint"/>
                        <Array as="points"/>
                    </mxGeometry>
                </mxCell>
                <mxCell id="6G0fP7aGu8YC6I9vEUQP-19" value="" style="endArrow=none;html=1;" parent="HYxAXSwcPygyeKNEVqgU-1" edge="1">
                    <mxGeometry width="50" height="50" relative="1" as="geometry">
                        <mxPoint x="200" y="-645" as="sourcePoint"/>
                        <mxPoint x="200" y="-700" as="targetPoint"/>
                    </mxGeometry>
                </mxCell>
                <mxCell id="6G0fP7aGu8YC6I9vEUQP-20" value="&lt;span style=&quot;font-size: 14px&quot;&gt;足し算の結果表示画面&lt;/span&gt;" style="text;html=1;strokeColor=none;fillColor=none;align=center;verticalAlign=middle;whiteSpace=wrap;rounded=0;" parent="HYxAXSwcPygyeKNEVqgU-1" vertex="1">
                    <mxGeometry x="179.5" y="-624" width="170.5" height="40" as="geometry"/>
                </mxCell>
                <mxCell id="6G0fP7aGu8YC6I9vEUQP-21" value="" style="endArrow=classic;html=1;" parent="HYxAXSwcPygyeKNEVqgU-1" edge="1">
                    <mxGeometry width="50" height="50" relative="1" as="geometry">
                        <mxPoint x="310" y="-1050" as="sourcePoint"/>
                        <mxPoint x="430" y="-1020" as="targetPoint"/>
                    </mxGeometry>
                </mxCell>
                <mxCell id="6G0fP7aGu8YC6I9vEUQP-23" value="" style="endArrow=classic;html=1;" parent="HYxAXSwcPygyeKNEVqgU-1" edge="1">
                    <mxGeometry width="50" height="50" relative="1" as="geometry">
                        <mxPoint x="440" y="-790" as="sourcePoint"/>
                        <mxPoint x="420" y="-770" as="targetPoint"/>
                        <Array as="points">
                            <mxPoint x="460" y="-810"/>
                        </Array>
                    </mxGeometry>
                </mxCell>
                <mxCell id="6G0fP7aGu8YC6I9vEUQP-24" value="" style="endArrow=classic;html=1;" parent="HYxAXSwcPygyeKNEVqgU-1" edge="1">
                    <mxGeometry width="50" height="50" relative="1" as="geometry">
                        <mxPoint x="340" y="-695" as="sourcePoint"/>
                        <mxPoint x="310" y="-680" as="targetPoint"/>
                    </mxGeometry>
                </mxCell>
                <mxCell id="6G0fP7aGu8YC6I9vEUQP-25" value="&lt;span style=&quot;font-size: 14px&quot;&gt;足し算結果表示&lt;br&gt;&lt;/span&gt;" style="text;html=1;strokeColor=none;fillColor=none;align=center;verticalAlign=middle;whiteSpace=wrap;rounded=0;" parent="HYxAXSwcPygyeKNEVqgU-1" vertex="1">
                    <mxGeometry x="334.5" y="-670" width="111" height="40" as="geometry"/>
                </mxCell>
                <mxCell id="6G0fP7aGu8YC6I9vEUQP-26" value="&lt;span style=&quot;font-size: 14px&quot;&gt;２つの整数を設定&lt;/span&gt;" style="text;html=1;strokeColor=none;fillColor=none;align=center;verticalAlign=middle;whiteSpace=wrap;rounded=0;" parent="HYxAXSwcPygyeKNEVqgU-1" vertex="1">
                    <mxGeometry x="445.5" y="-810" width="114.5" height="40" as="geometry"/>
                </mxCell>
                <mxCell id="6G0fP7aGu8YC6I9vEUQP-27" value="&lt;span style=&quot;font-size: 14px&quot;&gt;表示３１&lt;/span&gt;" style="text;html=1;strokeColor=none;fillColor=none;align=center;verticalAlign=middle;whiteSpace=wrap;rounded=0;" parent="HYxAXSwcPygyeKNEVqgU-1" vertex="1">
                    <mxGeometry x="421" y="-960" width="135.5" height="40" as="geometry"/>
                </mxCell>
                <mxCell id="6G0fP7aGu8YC6I9vEUQP-28" value="&lt;span style=&quot;font-size: 14px&quot;&gt;RoboDog&lt;/span&gt;" style="text;html=1;strokeColor=none;fillColor=none;align=center;verticalAlign=middle;whiteSpace=wrap;rounded=0;" parent="HYxAXSwcPygyeKNEVqgU-1" vertex="1">
                    <mxGeometry x="664.5" y="-880" width="111" height="40" as="geometry"/>
                </mxCell>
                <mxCell id="6G0fP7aGu8YC6I9vEUQP-29" value="" style="line;strokeWidth=2;html=1;" parent="HYxAXSwcPygyeKNEVqgU-1" vertex="1">
                    <mxGeometry x="685" y="-880" width="70" height="10" as="geometry"/>
                </mxCell>
                <mxCell id="6G0fP7aGu8YC6I9vEUQP-30" value="&lt;span style=&quot;font-size: 14px&quot;&gt;&amp;lt;&lt;br&gt;&lt;/span&gt;" style="text;html=1;strokeColor=none;fillColor=none;align=center;verticalAlign=middle;whiteSpace=wrap;rounded=0;" parent="HYxAXSwcPygyeKNEVqgU-1" vertex="1">
                    <mxGeometry x="424.5" y="-1060" width="111" height="40" as="geometry"/>
                </mxCell>
                <mxCell id="6G0fP7aGu8YC6I9vEUQP-31" value="&lt;span style=&quot;font-size: 14px&quot;&gt;&amp;lt;&lt;/span&gt;" style="text;html=1;strokeColor=none;fillColor=none;align=center;verticalAlign=middle;whiteSpace=wrap;rounded=0;" parent="HYxAXSwcPygyeKNEVqgU-1" vertex="1">
                    <mxGeometry x="424.5" y="-910" width="111" height="40" as="geometry"/>
                </mxCell>
                <mxCell id="6G0fP7aGu8YC6I9vEUQP-32" value="" style="endArrow=classic;startArrow=classic;html=1;" parent="HYxAXSwcPygyeKNEVqgU-1" edge="1">
                    <mxGeometry width="50" height="50" relative="1" as="geometry">
                        <mxPoint x="530" y="-860" as="sourcePoint"/>
                        <mxPoint x="680" y="-910" as="targetPoint"/>
                    </mxGeometry>
                </mxCell>
                <mxCell id="6G0fP7aGu8YC6I9vEUQP-33" value="" style="endArrow=classic;html=1;" parent="HYxAXSwcPygyeKNEVqgU-1" edge="1">
                    <mxGeometry width="50" height="50" relative="1" as="geometry">
                        <mxPoint x="310" y="-860" as="sourcePoint"/>
                        <mxPoint x="430" y="-850" as="targetPoint"/>
                    </mxGeometry>
                </mxCell>
                <mxCell id="6G0fP7aGu8YC6I9vEUQP-34" value="" style="endArrow=classic;html=1;" parent="HYxAXSwcPygyeKNEVqgU-1" edge="1">
                    <mxGeometry width="50" height="50" relative="1" as="geometry">
                        <mxPoint x="430" y="-980" as="sourcePoint"/>
                        <mxPoint x="310" y="-900" as="targetPoint"/>
                    </mxGeometry>
                </mxCell>
                <mxCell id="6Pp70Z3Uav26SKM7N1hc-1" value="" style="endArrow=classic;startArrow=classic;html=1;" edge="1" parent="HYxAXSwcPygyeKNEVqgU-1">
                    <mxGeometry width="50" height="50" relative="1" as="geometry">
                        <mxPoint x="450" y="-730" as="sourcePoint"/>
                        <mxPoint x="680" y="-885" as="targetPoint"/>
                    </mxGeometry>
                </mxCell>
            </root>
        </mxGraphModel>
    </diagram>
</mxfile>